{
  "accessors": [
    {
      "bufferView": 2,
      "componentType": 5126,
      "count": 65534,
      "max": [
        0.13781389594078064,
        0.2929533123970032,
        0.16499637067317963
      ],
      "min": [
        -0.11936214566230774,
        -0.27757230401039124,
        -0.1147785484790802
      ],
      "type": "VEC3"
    },
    {
      "bufferView": 2,
      "byteOffset": 786408,
      "componentType": 5126,
      "count": 65534,
      "max": [
        0.9999691843986511,
        0.9998752474784851,
        0.9999876618385315
      ],
      "min": [
        -0.9999909996986389,
        -0.9999228715896606,
        -0.9999604225158691
      ],
      "type": "VEC3"
    },
    {
      "bufferView": 1,
      "componentType": 5126,
      "count": 65534,
      "max": [
        0.9864292144775391,
        0.9999861717224121
      ],
      "min": [
        0.0,
        0.0
      ],
      "type": "VEC2"
    },
    {
      "bufferView": 0,
      "componentType": 5125,
      "count": 368670,
      "type": "SCALAR"
    },
    {
      "bufferView": 2,
      "byteOffset": 1572816,
      "componentType": 5126,
      "count": 3387,
      "max": [
        0.11411941051483154,
        0.15278053283691406,
        0.10112863034009933
      ],
      "min": [
        -0.08655629307031631,
        -0.27224645018577576,
        -0.10124853253364563
      ],
      "type": "VEC3"
    },
    {
      "bufferView": 2,
      "byteOffset": 1613460,
      "componentType": 5126,
      "count": 3387,
      "max": [
        0.9996593594551086,
        0.9977219700813293,
        0.9999634027481079
      ],
      "min": [
        -0.9996477365493774,
        -0.9881986379623413,
        -0.9966866374015808
      ],
      "type": "VEC3"
    },
    {
      "bufferView": 1,
      "byteOffset": 524272,
      "componentType": 5126,
      "count": 3387,
      "max": [
        0.9086365699768066,
        0.9996848106384277
      ],
      "min": [
        0.02337915450334549,
        0.169600710272789
      ],
      "type": "VEC2"
    },
    {
      "bufferView": 0,
      "byteOffset": 1474680,
      "componentType": 5125,
      "count": 7539,
      "type": "SCALAR"
    }
  ],
  "asset": {
    "extras": {
      "author": "Náttúrufræðistofnun Íslands (https://sketchfab.com/natturufraedistofnun)",
      "license": "CC-BY-4.0 (http://creativecommons.org/licenses/by/4.0/)",
      "source": "https://sketchfab.com/3d-models/geirfugl-great-auk-83d49d319c6640638a6ceaee29b1ebc5",
      "title": "Geirfugl – Great Auk"
    },
    "generator": "Sketchfab-12.66.0",
    "version": "2.0"
  },
  "bufferViews": [
    {
      "buffer": 0,
      "byteLength": 1504836,
      "name": "floatBufferViews",
      "target": 34963
    },
    {
      "buffer": 0,
      "byteLength": 551368,
      "byteOffset": 1504836,
      "byteStride": 8,
      "name": "floatBufferViews",
      "target": 34962
    },
    {
      "buffer": 0,
      "byteLength": 1654104,
      "byteOffset": 2056204,
      "byteStride": 12,
      "name": "floatBufferViews",
      "target": 34962
    }
  ],
  "buffers": [
    {
      "byteLength": 3710308,
      "uri": "scene.bin"
    }
  ],
  "extensionsRequired": [
    "KHR_materials_pbrSpecularGlossiness"
  ],
  "extensionsUsed": [
    "KHR_materials_pbrSpecularGlossiness"
  ],
  "images": [
    {
      "uri": "textures/material0_diffuse.jpeg"
    }
  ],
  "materials": [
    {
      "doubleSided": true,
      "extensions": {
        "KHR_materials_pbrSpecularGlossiness": {
          "diffuseFactor": [
            1.0,
            1.0,
            1.0,
            1.0
          ],
          "diffuseTexture": {
            "index": 0
          },
          "glossinessFactor": 1.0,
          "specularFactor": [
            0.0,
            0.0,
            0.0
          ]
        }
      },
      "name": "material0"
    }
  ],
  "meshes": [
    {
      "name": "Model_material0_0",
      "primitives": [
        {
          "attributes": {
            "NORMAL": 1,
            "POSITION": 0,
            "TEXCOORD_0": 2
          },
          "indices": 3,
          "material": 0,
          "mode": 4
        }
      ]
    },
    {
      "name": "Model_material0_0",
      "primitives": [
        {
          "attributes": {
            "NORMAL": 5,
            "POSITION": 4,
            "TEXCOORD_0": 6
          },
          "indices": 7,
          "material": 0,
          "mode": 4
        }
      ]
    }
  ],
  "nodes": [
    {
      "children": [
        1
      ],
      "matrix": [
        -0.19622354479539084,
        -0.08583225762313311,
        -1.3329607300225774,
        0.0,
        -0.18765668053415574,
        1.3356765018159606,
        -0.05838240954355826,
        0.0,
        1.3224735972719515,
        0.1767946998189523,
        -0.20606394259376867,
        0.0,
        0.03409334644675255,
        -0.013624781742691997,
        0.012635174207389351,
        1.0
      ],
      "name": "Sketchfab_model"
    },
    {
      "children": [
        2
      ],
      "matrix": [
        1.0,
        0.0,
        0.0,
        0.0,
        0.0,
        -1.0,
        0.0,
        0.0,
        0.0,
        0.0,
        -1.0,
        0.0,
        0.0,
        0.0,
        0.0,
        1.0
      ],
      "name": "model.fbx"
    },
    {
      "children": [
        3
      ],
      "name": "RootNode"
    },
    {
      "children": [
        4,
        5
      ],
      "name": "Model"
    },
    {
      "mesh": 0,
      "name": "Model_material0_0"
    },
    {
      "mesh": 1,
      "name": "Model_material0_0"
    }
  ],
  "samplers": [
    {
      "magFilter": 9729,
      "minFilter": 9987,
      "wrapS": 10497,
      "wrapT": 10497
    }
  ],
  "scene": 0,
  "scenes": [
    {
      "name": "Sketchfab_Scene",
      "nodes": [
        0
      ]
    }
  ],
  "textures": [
    {
      "sampler": 0,
      "source": 0
    }
  ]
}
