{
  "accessors": [
    {
      "bufferView": 2,
      "componentType": 5126,
      "count": 11933,
      "max": [
        164.37774658203125,
        389.8641052246094,
        358.6087951660156
      ],
      "min": [
        -110.94916534423828,
        -1.478231430053711,
        -443.58599853515625
      ],
      "type": "VEC3"
    },
    {
      "bufferView": 2,
      "byteOffset": 143196,
      "componentType": 5126,
      "count": 11933,
      "max": [
        0.9999400973320007,
        0.9994185566902161,
        0.9990326762199402
      ],
      "min": [
        -0.9999653100967407,
        -0.9997766017913818,
        -0.9999850988388062
      ],
      "type": "VEC3"
    },
    {
      "bufferView": 3,
      "componentType": 5126,
      "count": 11933,
      "max": [
        0.9998974204063416,
        0.9999792575836182,
        0.9994559288024902,
        1.0
      ],
      "min": [
        -0.9998971223831177,
        -0.999967098236084,
        -0.9998260140419006,
        -1.0
      ],
      "type": "VEC4"
    },
    {
      "bufferView": 1,
      "componentType": 5126,
      "count": 11933,
      "max": [
        0.9909189939498901,
        0.9919430017471313
      ],
      "min": [
        0.006739307194948196,
        0.006520867347717285
      ],
      "type": "VEC2"
    },
    {
      "bufferView": 1,
      "byteOffset": 95464,
      "componentType": 5126,
      "count": 11933,
      "max": [
        0.9909189939498901,
        0.9919430017471313
      ],
      "min": [
        0.006739307194948196,
        0.006520867347717285
      ],
      "type": "VEC2"
    },
    {
      "bufferView": 1,
      "byteOffset": 190928,
      "componentType": 5126,
      "count": 11933,
      "max": [
        0.9909189939498901,
        0.9919430017471313
      ],
      "min": [
        0.006739307194948196,
        0.006520867347717285
      ],
      "type": "VEC2"
    },
    {
      "bufferView": 1,
      "byteOffset": 286392,
      "componentType": 5126,
      "count": 11933,
      "max": [
        0.9909189939498901,
        0.9919430017471313
      ],
      "min": [
        0.006739307194948196,
        0.006520867347717285
      ],
      "type": "VEC2"
    },
    {
      "bufferView": 1,
      "byteOffset": 381856,
      "componentType": 5126,
      "count": 11933,
      "max": [
        0.9909189939498901,
        0.9919430017471313
      ],
      "min": [
        0.006739307194948196,
        0.006520867347717285
      ],
      "type": "VEC2"
    },
    {
      "bufferView": 0,
      "componentType": 5125,
      "count": 63453,
      "type": "SCALAR"
    }
  ],
  "asset": {
    "extras": {
      "author": "Al-Deezel (https://sketchfab.com/moroahmedadel)",
      "license": "CC-BY-4.0 (http://creativecommons.org/licenses/by/4.0/)",
      "source": "https://sketchfab.com/3d-models/terex-dinosaur-ddfe9944ad124cc8b7601a8ef2a640af",
      "title": "Terex dinosaur"
    },
    "generator": "Sketchfab-15.18.0",
    "version": "2.0"
  },
  "bufferViews": [
    {
      "buffer": 0,
      "byteLength": 253812,
      "name": "floatBufferViews",
      "target": 34963
    },
    {
      "buffer": 0,
      "byteLength": 477320,
      "byteOffset": 253812,
      "byteStride": 8,
      "name": "floatBufferViews",
      "target": 34962
    },
    {
      "buffer": 0,
      "byteLength": 286392,
      "byteOffset": 731132,
      "byteStride": 12,
      "name": "floatBufferViews",
      "target": 34962
    },
    {
      "buffer": 0,
      "byteLength": 190928,
      "byteOffset": 1017524,
      "byteStride": 16,
      "name": "floatBufferViews",
      "target": 34962
    }
  ],
  "buffers": [
    {
      "byteLength": 1208452,
      "uri": "scene.bin"
    }
  ],
  "extensionsRequired": [
    "KHR_materials_pbrSpecularGlossiness"
  ],
  "extensionsUsed": [
    "KHR_materials_pbrSpecularGlossiness"
  ],
  "images": [
    {
      "uri": "textures/material_0_diffuse.png"
    },
    {
      "uri": "textures/material_0_specularGlossiness.png"
    },
    {
      "uri": "textures/material_0_normal.png"
    },
    {
      "uri": "textures/material_0_occlusion.png"
    }
  ],
  "materials": [
    {
      "doubleSided": true,
      "extensions": {
        "KHR_materials_pbrSpecularGlossiness": {
          "diffuseFactor": [
            1.0,
            1.0,
            1.0,
            1.0
          ],
          "diffuseTexture": {
            "index": 0
          },
          "glossinessFactor": 1.0,
          "specularFactor": [
            1.0,
            1.0,
            1.0
          ],
          "specularGlossinessTexture": {
            "index": 1
          }
        }
      },
      "name": "material_0",
      "normalTexture": {
        "index": 2
      },
      "occlusionTexture": {
        "index": 3
      }
    }
  ],
  "meshes": [
    {
      "name": "Object_0",
      "primitives": [
        {
          "attributes": {
            "NORMAL": 1,
            "POSITION": 0,
            "TANGENT": 2,
            "TEXCOORD_0": 3,
            "TEXCOORD_1": 4,
            "TEXCOORD_2": 5,
            "TEXCOORD_3": 6,
            "TEXCOORD_4": 7
          },
          "indices": 8,
          "material": 0,
          "mode": 4
        }
      ]
    }
  ],
  "nodes": [
    {
      "children": [
        1
      ],
      "matrix": [
        1.0,
        0.0,
        0.0,
        0.0,
        0.0,
        2.220446049250313e-16,
        -1.0,
        0.0,
        0.0,
        1.0,
        2.220446049250313e-16,
        0.0,
        0.0,
        0.0,
        0.0,
        1.0
      ],
      "name": "Sketchfab_model"
    },
    {
      "children": [
        2
      ],
      "name": "root"
    },
    {
      "children": [
        3
      ],
      "matrix": [
        1.0,
        0.0,
        0.0,
        0.0,
        0.0,
        2.220446049250313e-16,
        1.0,
        0.0,
        0.0,
        -1.0,
        2.220446049250313e-16,
        0.0,
        0.0,
        0.0,
        0.0,
        1.0
      ],
      "name": "GLTF_SceneRootNode"
    },
    {
      "children": [
        4
      ],
      "matrix": [
        0.009999999776482582,
        0.0,
        0.0,
        0.0,
        0.0,
        0.009999999776482582,
        0.0,
        0.0,
        0.0,
        0.0,
        0.009999999776482582,
        0.0,
        0.0,
        0.0,
        0.0,
        1.0
      ],
      "name": "RootNode.0_0"
    },
    {
      "children": [
        5
      ],
      "name": "tyrannosaurus_rex.1_1"
    },
    {
      "mesh": 0,
      "name": "Object_5"
    }
  ],
  "samplers": [
    {
      "magFilter": 9729,
      "minFilter": 9987,
      "wrapS": 10497,
      "wrapT": 10497
    }
  ],
  "scene": 0,
  "scenes": [
    {
      "name": "Sketchfab_Scene",
      "nodes": [
        0
      ]
    }
  ],
  "textures": [
    {
      "sampler": 0,
      "source": 0
    },
    {
      "sampler": 0,
      "source": 1
    },
    {
      "sampler": 0,
      "source": 2
    },
    {
      "sampler": 0,
      "source": 3
    }
  ]
}
