{
  "accessors": [
    {
      "bufferView": 2,
      "componentType": 5126,
      "count": 763,
      "max": [
        0.19128300249576569,
        0.4847320020198822,
        0.6522589921951294
      ],
      "min": [
        -0.19128300249576569,
        -0.5094119906425476,
        0.0018530000234022737
      ],
      "type": "VEC3"
    },
    {
      "bufferView": 2,
      "byteOffset": 9156,
      "componentType": 5126,
      "count": 763,
      "max": [
        0.9935474991798401,
        0.9999984502792358,
        0.999971866607666
      ],
      "min": [
        -0.9935474991798401,
        -0.9987088441848755,
        -0.999984860420227
      ],
      "type": "VEC3"
    },
    {
      "bufferView": 1,
      "componentType": 5126,
      "count": 763,
      "max": [
        1.2323130369186401,
        1.2323130369186401
      ],
      "min": [
        0.2301509976387024,
        0.12409300357103348
      ],
      "type": "VEC2"
    },
    {
      "bufferView": 0,
      "componentType": 5125,
      "count": 2406,
      "type": "SCALAR"
    }
  ],
  "asset": {
    "extras": {
      "author": "AndromedaAJ (https://sketchfab.com/AndromedaAJ)",
      "license": "CC-BY-4.0 (http://creativecommons.org/licenses/by/4.0/)",
      "source": "https://sketchfab.com/3d-models/peacock-f11dd019d4514f4ab5b140d64cf4fec0",
      "title": "peacock"
    },
    "generator": "Sketchfab-12.67.0",
    "version": "2.0"
  },
  "bufferViews": [
    {
      "buffer": 0,
      "byteLength": 9624,
      "name": "floatBufferViews",
      "target": 34963
    },
    {
      "buffer": 0,
      "byteLength": 6104,
      "byteOffset": 9624,
      "byteStride": 8,
      "name": "floatBufferViews",
      "target": 34962
    },
    {
      "buffer": 0,
      "byteLength": 18312,
      "byteOffset": 15728,
      "byteStride": 12,
      "name": "floatBufferViews",
      "target": 34962
    }
  ],
  "buffers": [
    {
      "byteLength": 34040,
      "uri": "scene.bin"
    }
  ],
  "materials": [
    {
      "doubleSided": true,
      "name": "Material.001",
      "pbrMetallicRoughness": {
        "baseColorFactor": [
          0.0,
          0.02794473954219566,
          0.8300970234297829,
          1.0
        ],
        "metallicFactor": 0.7482004438273322,
        "roughnessFactor": 0.009025130030717587
      }
    }
  ],
  "meshes": [
    {
      "name": "Object_0",
      "primitives": [
        {
          "attributes": {
            "NORMAL": 1,
            "POSITION": 0,
            "TEXCOORD_0": 2
          },
          "indices": 3,
          "material": 0,
          "mode": 4
        }
      ]
    }
  ],
  "nodes": [
    {
      "children": [
        1
      ],
      "matrix": [
        1.0,
        0.0,
        0.0,
        0.0,
        0.0,
        2.220446049250313e-16,
        -1.0,
        0.0,
        0.0,
        1.0,
        2.220446049250313e-16,
        0.0,
        0.0,
        0.0,
        0.0,
        1.0
      ],
      "name": "Sketchfab_model"
    },
    {
      "children": [
        2
      ],
      "name": "a9c18c31aa534f95b2888cbe0cc622d4.obj.cleaner.materialmerger.gles"
    },
    {
      "mesh": 0,
      "name": "Object_2"
    }
  ],
  "scene": 0,
  "scenes": [
    {
      "name": "Sketchfab_Scene",
      "nodes": [
        0
      ]
    }
  ]
}
