{
  "accessors": [
    {
      "bufferView": 2,
      "componentType": 5126,
      "count": 65532,
      "max": [
        3.4256160259246826,
        2.6202309131622314,
        1.1779910326004028
      ],
      "min": [
        -3.50427508354187,
        -2.4835360050201416,
        -0.8178160190582275
      ],
      "type": "VEC3"
    },
    {
      "bufferView": 2,
      "byteOffset": 786384,
      "componentType": 5126,
      "count": 65532,
      "max": [
        0.9997288584709167,
        0.9999498128890991,
        1.0
      ],
      "min": [
        -0.9999997615814209,
        -0.9999091625213623,
        -0.9800483584403992
      ],
      "type": "VEC3"
    },
    {
      "bufferView": 1,
      "componentType": 5126,
      "count": 65532,
      "max": [
        0.9971230030059814,
        0.9959949851036072
      ],
      "min": [
        0.0027840000111609697,
        0.002785000018775463
      ],
      "type": "VEC2"
    },
    {
      "bufferView": 0,
      "componentType": 5125,
      "count": 329082,
      "type": "SCALAR"
    },
    {
      "bufferView": 2,
      "byteOffset": 1572768,
      "componentType": 5126,
      "count": 65532,
      "max": [
        3.4256160259246826,
        2.606287956237793,
        1.1863700151443481
      ],
      "min": [
        -3.5043699741363525,
        -2.394279956817627,
        -0.7451720237731934
      ],
      "type": "VEC3"
    },
    {
      "bufferView": 2,
      "byteOffset": 2359152,
      "componentType": 5126,
      "count": 65532,
      "max": [
        0.9999310970306396,
        0.9999488592147827,
        0.9999995231628418
      ],
      "min": [
        -0.9999797344207764,
        -0.9999891519546509,
        -0.999714195728302
      ],
      "type": "VEC3"
    },
    {
      "bufferView": 1,
      "byteOffset": 524256,
      "componentType": 5126,
      "count": 65532,
      "max": [
        0.9972149729728699,
        0.9961420297622681
      ],
      "min": [
        0.00279000005684793,
        0.002785000018775463
      ],
      "type": "VEC2"
    },
    {
      "bufferView": 0,
      "byteOffset": 1316328,
      "componentType": 5125,
      "count": 303645,
      "type": "SCALAR"
    },
    {
      "bufferView": 2,
      "byteOffset": 3145536,
      "componentType": 5126,
      "count": 12888,
      "max": [
        3.4033660888671875,
        2.5014939308166504,
        1.1550300121307373
      ],
      "min": [
        -3.503999948501587,
        -2.4835360050201416,
        -0.7513790130615234
      ],
      "type": "VEC3"
    },
    {
      "bufferView": 2,
      "byteOffset": 3300192,
      "componentType": 5126,
      "count": 12888,
      "max": [
        0.9991554021835327,
        0.9989629983901978,
        0.9999977350234985
      ],
      "min": [
        -0.9988561868667603,
        -0.9991931915283203,
        -0.8209515810012817
      ],
      "type": "VEC3"
    },
    {
      "bufferView": 1,
      "byteOffset": 1048512,
      "componentType": 5126,
      "count": 12888,
      "max": [
        0.9970909953117371,
        0.9949150085449219
      ],
      "min": [
        0.015960000455379486,
        0.002785000018775463
      ],
      "type": "VEC2"
    },
    {
      "bufferView": 0,
      "byteOffset": 2530908,
      "componentType": 5125,
      "count": 42819,
      "type": "SCALAR"
    }
  ],
  "asset": {
    "extras": {
      "author": "GSXNet (https://sketchfab.com/gsxn)",
      "license": "CC-BY-4.0 (http://creativecommons.org/licenses/by/4.0/)",
      "source": "https://sketchfab.com/3d-models/fishhook-barrel-cactus-f0f63dfa7be8409ca456946d2ad3a62a",
      "title": "Fishhook barrel cactus"
    },
    "generator": "Sketchfab-12.67.0",
    "version": "2.0"
  },
  "bufferViews": [
    {
      "buffer": 0,
      "byteLength": 2702184,
      "name": "floatBufferViews",
      "target": 34963
    },
    {
      "buffer": 0,
      "byteLength": 1151616,
      "byteOffset": 2702184,
      "byteStride": 8,
      "name": "floatBufferViews",
      "target": 34962
    },
    {
      "buffer": 0,
      "byteLength": 3454848,
      "byteOffset": 3853800,
      "byteStride": 12,
      "name": "floatBufferViews",
      "target": 34962
    }
  ],
  "buffers": [
    {
      "byteLength": 7308648,
      "uri": "scene.bin"
    }
  ],
  "extensionsUsed": [
    "KHR_materials_unlit"
  ],
  "images": [
    {
      "uri": "textures/Cactus_baseColor.png"
    }
  ],
  "materials": [
    {
      "doubleSided": true,
      "extensions": {
        "KHR_materials_unlit": {}
      },
      "name": "Cactus",
      "pbrMetallicRoughness": {
        "baseColorTexture": {
          "index": 0
        },
        "metallicFactor": 0.0
      }
    }
  ],
  "meshes": [
    {
      "name": "Object_0",
      "primitives": [
        {
          "attributes": {
            "NORMAL": 1,
            "POSITION": 0,
            "TEXCOORD_0": 2
          },
          "indices": 3,
          "material": 0,
          "mode": 4
        }
      ]
    },
    {
      "name": "Object_1",
      "primitives": [
        {
          "attributes": {
            "NORMAL": 5,
            "POSITION": 4,
            "TEXCOORD_0": 6
          },
          "indices": 7,
          "material": 0,
          "mode": 4
        }
      ]
    },
    {
      "name": "Object_2",
      "primitives": [
        {
          "attributes": {
            "NORMAL": 9,
            "POSITION": 8,
            "TEXCOORD_0": 10
          },
          "indices": 11,
          "material": 0,
          "mode": 4
        }
      ]
    }
  ],
  "nodes": [
    {
      "children": [
        1
      ],
      "matrix": [
        1.0,
        0.0,
        0.0,
        0.0,
        0.0,
        2.220446049250313e-16,
        -1.0,
        0.0,
        0.0,
        1.0,
        2.220446049250313e-16,
        0.0,
        0.0,
        0.0,
        0.0,
        1.0
      ],
      "name": "Sketchfab_model"
    },
    {
      "children": [
        2,
        3,
        4
      ],
      "name": "Cactus.obj.cleaner.materialmerger.gles"
    },
    {
      "mesh": 0,
      "name": "Object_2"
    },
    {
      "mesh": 1,
      "name": "Object_3"
    },
    {
      "mesh": 2,
      "name": "Object_4"
    }
  ],
  "samplers": [
    {
      "magFilter": 9729,
      "minFilter": 9987,
      "wrapS": 10497,
      "wrapT": 10497
    }
  ],
  "scene": 0,
  "scenes": [
    {
      "name": "Sketchfab_Scene",
      "nodes": [
        0
      ]
    }
  ],
  "textures": [
    {
      "sampler": 0,
      "source": 0
    }
  ]
}
