{
  "accessors": [
    {
      "bufferView": 2,
      "componentType": 5126,
      "count": 65532,
      "max": [
        3987.90771484375,
        1066.478515625,
        1136.1474609375
      ],
      "min": [
        -1076.268310546875,
        -1184.681640625,
        -1453.302001953125
      ],
      "type": "VEC3"
    },
    {
      "bufferView": 2,
      "byteOffset": 786384,
      "componentType": 5126,
      "count": 65532,
      "max": [
        1.0,
        1.0,
        0.999917209148407
      ],
      "min": [
        -1.0,
        -0.9999964833259583,
        -0.999927282333374
      ],
      "type": "VEC3"
    },
    {
      "bufferView": 1,
      "componentType": 5126,
      "count": 65532,
      "max": [
        0.998432993888855,
        0.9992190003395081
      ],
      "min": [
        0.0007810000097379088,
        0.0007820000173524022
      ],
      "type": "VEC2"
    },
    {
      "bufferView": 0,
      "componentType": 5125,
      "count": 334347,
      "type": "SCALAR"
    },
    {
      "bufferView": 2,
      "byteOffset": 1572768,
      "componentType": 5126,
      "count": 65532,
      "max": [
        3962.7431640625,
        1060.1727294921875,
        1118.107421875
      ],
      "min": [
        -1075.16015625,
        -1184.681640625,
        -1426.510498046875
      ],
      "type": "VEC3"
    },
    {
      "bufferView": 2,
      "byteOffset": 2359152,
      "componentType": 5126,
      "count": 65532,
      "max": [
        0.9997254014015198,
        0.9999344348907471,
        0.9999439120292664
      ],
      "min": [
        -0.9999317526817322,
        -0.9999997019767761,
        -0.9999614357948303
      ],
      "type": "VEC3"
    },
    {
      "bufferView": 1,
      "byteOffset": 524256,
      "componentType": 5126,
      "count": 65532,
      "max": [
        0.9469959735870361,
        0.9992190003395081
      ],
      "min": [
        0.0007810000097379088,
        0.04010799899697304
      ],
      "type": "VEC2"
    },
    {
      "bufferView": 0,
      "byteOffset": 1337388,
      "componentType": 5125,
      "count": 363876,
      "type": "SCALAR"
    },
    {
      "bufferView": 2,
      "byteOffset": 3145536,
      "componentType": 5126,
      "count": 10187,
      "max": [
        80.57919311523438,
        768.310302734375,
        953.4345703125
      ],
      "min": [
        -959.1356811523438,
        -831.5101318359375,
        -875.7859497070313
      ],
      "type": "VEC3"
    },
    {
      "bufferView": 2,
      "byteOffset": 3267780,
      "componentType": 5126,
      "count": 10187,
      "max": [
        0.8047937750816345,
        0.9990213513374329,
        0.9992371797561646
      ],
      "min": [
        -0.9999765157699585,
        -0.9999988079071045,
        -0.995244562625885
      ],
      "type": "VEC3"
    },
    {
      "bufferView": 1,
      "byteOffset": 1048512,
      "componentType": 5126,
      "count": 10187,
      "max": [
        0.7088080048561096,
        0.7395070195198059
      ],
      "min": [
        0.565625011920929,
        0.3040440082550049
      ],
      "type": "VEC2"
    },
    {
      "bufferView": 0,
      "byteOffset": 2792892,
      "componentType": 5125,
      "count": 51516,
      "type": "SCALAR"
    }
  ],
  "asset": {
    "extras": {
      "author": "Natural History Museum Vienna (https://sketchfab.com/NHMWien)",
      "license": "CC-BY-NC-4.0 (http://creativecommons.org/licenses/by-nc/4.0/)",
      "source": "https://sketchfab.com/3d-models/southern-elephant-seal-nhmw-zoo-mamm-18460-bcf3f57e4ade48cc8dd6f6e6f2ecf3f7",
      "title": "Southern Elephant Seal (NHMW-Zoo-MAMM 18460)"
    },
    "generator": "Sketchfab-12.66.0",
    "version": "2.0"
  },
  "bufferViews": [
    {
      "buffer": 0,
      "byteLength": 2998956,
      "name": "floatBufferViews",
      "target": 34963
    },
    {
      "buffer": 0,
      "byteLength": 1130008,
      "byteOffset": 2998956,
      "byteStride": 8,
      "name": "floatBufferViews",
      "target": 34962
    },
    {
      "buffer": 0,
      "byteLength": 3390024,
      "byteOffset": 4128964,
      "byteStride": 12,
      "name": "floatBufferViews",
      "target": 34962
    }
  ],
  "buffers": [
    {
      "byteLength": 7518988,
      "uri": "scene.bin"
    }
  ],
  "images": [
    {
      "uri": "textures/material_0_baseColor.png"
    }
  ],
  "materials": [
    {
      "doubleSided": true,
      "name": "material_0",
      "pbrMetallicRoughness": {
        "baseColorTexture": {
          "index": 0
        },
        "metallicFactor": 0.0
      }
    }
  ],
  "meshes": [
    {
      "name": "Object_0",
      "primitives": [
        {
          "attributes": {
            "NORMAL": 1,
            "POSITION": 0,
            "TEXCOORD_0": 2
          },
          "indices": 3,
          "material": 0,
          "mode": 4
        }
      ]
    },
    {
      "name": "Object_1",
      "primitives": [
        {
          "attributes": {
            "NORMAL": 5,
            "POSITION": 4,
            "TEXCOORD_0": 6
          },
          "indices": 7,
          "material": 0,
          "mode": 4
        }
      ]
    },
    {
      "name": "Object_2",
      "primitives": [
        {
          "attributes": {
            "NORMAL": 9,
            "POSITION": 8,
            "TEXCOORD_0": 10
          },
          "indices": 11,
          "material": 0,
          "mode": 4
        }
      ]
    }
  ],
  "nodes": [
    {
      "children": [
        1
      ],
      "matrix": [
        5.4875247816549635e-06,
        6.425925386862604e-05,
        0.001248335139863152,
        0.0,
        -0.00010576322438352048,
        -0.0012438467612002763,
        6.449313224494876e-05,
        0.0,
        0.001245505483921494,
        -0.00010590548390361325,
        -2.349918933988171e-08,
        0.0,
        1602.432861328125,
        -305.65887451171847,
        -1391.734619140625,
        1.0
      ],
      "name": "Sketchfab_model"
    },
    {
      "children": [
        2,
        3,
        4
      ],
      "name": "NHMW-Zoo1-Southern elefant seal_low res.obj.cleaner.materialmerger.gles"
    },
    {
      "mesh": 0,
      "name": "Object_2"
    },
    {
      "mesh": 1,
      "name": "Object_3"
    },
    {
      "mesh": 2,
      "name": "Object_4"
    }
  ],
  "samplers": [
    {
      "magFilter": 9729,
      "minFilter": 9987,
      "wrapS": 10497,
      "wrapT": 10497
    }
  ],
  "scene": 0,
  "scenes": [
    {
      "name": "Sketchfab_Scene",
      "nodes": [
        0
      ]
    }
  ],
  "textures": [
    {
      "sampler": 0,
      "source": 0
    }
  ]
}
