{
  "accessors": [
    {
      "bufferView": 2,
      "componentType": 5126,
      "count": 810,
      "max": [
        47.55573272705078,
        68.92195129394531,
        228.7047119140625
      ],
      "min": [
        -90.01265716552734,
        -63.94083023071289,
        0.0
      ],
      "type": "VEC3"
    },
    {
      "bufferView": 2,
      "byteOffset": 9720,
      "componentType": 5126,
      "count": 810,
      "max": [
        0.9999765157699585,
        0.999722421169281,
        0.9997326135635376
      ],
      "min": [
        -0.9999257326126099,
        -0.9999282360076904,
        -0.9594764709472656
      ],
      "type": "VEC3"
    },
    {
      "bufferView": 3,
      "componentType": 5126,
      "count": 810,
      "max": [
        0.9998481869697571,
        0.9999425411224365,
        0.8836565613746643,
        1.0
      ],
      "min": [
        -0.999544620513916,
        -0.9999685287475586,
        -0.9999989867210388,
        1.0
      ],
      "type": "VEC4"
    },
    {
      "bufferView": 1,
      "componentType": 5126,
      "count": 810,
      "max": [
        0.98021000623703,
        3.008502960205078
      ],
      "min": [
        -0.0003769999893847853,
        -2.0139570236206055
      ],
      "type": "VEC2"
    },
    {
      "bufferView": 0,
      "componentType": 5125,
      "count": 3024,
      "type": "SCALAR"
    }
  ],
  "asset": {
    "extras": {
      "author": "zvanstone (https://sketchfab.com/zvanstone)",
      "license": "CC-BY-4.0 (http://creativecommons.org/licenses/by/4.0/)",
      "source": "https://sketchfab.com/3d-models/sunflower-3a9514b8df044abe809432201b8f1c6e",
      "title": "Sunflower"
    },
    "generator": "Sketchfab-12.67.0",
    "version": "2.0"
  },
  "bufferViews": [
    {
      "buffer": 0,
      "byteLength": 12096,
      "name": "floatBufferViews",
      "target": 34963
    },
    {
      "buffer": 0,
      "byteLength": 6480,
      "byteOffset": 12096,
      "byteStride": 8,
      "name": "floatBufferViews",
      "target": 34962
    },
    {
      "buffer": 0,
      "byteLength": 19440,
      "byteOffset": 18576,
      "byteStride": 12,
      "name": "floatBufferViews",
      "target": 34962
    },
    {
      "buffer": 0,
      "byteLength": 12960,
      "byteOffset": 38016,
      "byteStride": 16,
      "name": "floatBufferViews",
      "target": 34962
    }
  ],
  "buffers": [
    {
      "byteLength": 50976,
      "uri": "scene.bin"
    }
  ],
  "images": [
    {
      "uri": "textures/lambert2SG_baseColor.png"
    },
    {
      "uri": "textures/lambert2SG_metallicRoughness.png"
    },
    {
      "uri": "textures/lambert2SG_emissive.png"
    },
    {
      "uri": "textures/lambert2SG_normal.png"
    }
  ],
  "materials": [
    {
      "alphaCutoff": 0.3858612804878049,
      "alphaMode": "MASK",
      "doubleSided": true,
      "emissiveFactor": [
        0.504954268292683,
        0.504954268292683,
        0.504954268292683
      ],
      "emissiveTexture": {
        "index": 2
      },
      "name": "lambert2SG",
      "normalTexture": {
        "index": 3
      },
      "occlusionTexture": {
        "index": 1
      },
      "pbrMetallicRoughness": {
        "baseColorTexture": {
          "index": 0
        },
        "metallicFactor": 0.0,
        "metallicRoughnessTexture": {
          "index": 1
        },
        "roughnessFactor": 0.6785442073170732
      }
    }
  ],
  "meshes": [
    {
      "name": "Object_0",
      "primitives": [
        {
          "attributes": {
            "NORMAL": 1,
            "POSITION": 0,
            "TANGENT": 2,
            "TEXCOORD_0": 3
          },
          "indices": 4,
          "material": 0,
          "mode": 4
        }
      ]
    }
  ],
  "nodes": [
    {
      "children": [
        1
      ],
      "matrix": [
        1.0,
        0.0,
        0.0,
        0.0,
        0.0,
        2.220446049250313e-16,
        -1.0,
        0.0,
        0.0,
        1.0,
        2.220446049250313e-16,
        0.0,
        0.0,
        0.0,
        0.0,
        1.0
      ],
      "name": "Sketchfab_model"
    },
    {
      "children": [
        2
      ],
      "name": "sunflower.obj.cleaner.materialmerger.gles"
    },
    {
      "mesh": 0,
      "name": "Object_2"
    }
  ],
  "samplers": [
    {
      "magFilter": 9729,
      "minFilter": 9987,
      "wrapS": 10497,
      "wrapT": 10497
    }
  ],
  "scene": 0,
  "scenes": [
    {
      "name": "Sketchfab_Scene",
      "nodes": [
        0
      ]
    }
  ],
  "textures": [
    {
      "sampler": 0,
      "source": 0
    },
    {
      "sampler": 0,
      "source": 1
    },
    {
      "sampler": 0,
      "source": 2
    },
    {
      "sampler": 0,
      "source": 3
    }
  ]
}
