{
  "accessors": [
    {
      "bufferView": 2,
      "componentType": 5126,
      "count": 821,
      "max": [
        40.674800872802734,
        42.065223693847656,
        96.76762390136719
      ],
      "min": [
        -47.26130294799805,
        -51.856048583984375,
        -7.569050312042236
      ],
      "type": "VEC3"
    },
    {
      "bufferView": 2,
      "byteOffset": 9852,
      "componentType": 5126,
      "count": 821,
      "max": [
        0.987152099609375,
        0.9967401623725891,
        0.9992309212684631
      ],
      "min": [
        -0.9998252391815186,
        -0.9992069602012634,
        -0.6057764887809753
      ],
      "type": "VEC3"
    },
    {
      "bufferView": 3,
      "componentType": 5126,
      "count": 821,
      "max": [
        0.9994745850563049,
        0.9982569217681885,
        0.9992462992668152,
        1.0
      ],
      "min": [
        -0.9978205561637878,
        -0.9999052882194519,
        -0.9992795586585999,
        1.0
      ],
      "type": "VEC4"
    },
    {
      "bufferView": 1,
      "componentType": 5126,
      "count": 821,
      "max": [
        0.994140625,
        1.026458740234375
      ],
      "min": [
        7.492303848266602e-05,
        0.0
      ],
      "type": "VEC2"
    },
    {
      "bufferView": 1,
      "byteOffset": 6568,
      "componentType": 5126,
      "count": 821,
      "max": [
        0.994140625,
        1.026458740234375
      ],
      "min": [
        7.492303848266602e-05,
        0.0
      ],
      "type": "VEC2"
    },
    {
      "bufferView": 1,
      "byteOffset": 13136,
      "componentType": 5126,
      "count": 821,
      "max": [
        0.994140625,
        1.026458740234375
      ],
      "min": [
        7.492303848266602e-05,
        0.0
      ],
      "type": "VEC2"
    },
    {
      "bufferView": 0,
      "componentType": 5125,
      "count": 2433,
      "type": "SCALAR"
    }
  ],
  "asset": {
    "extras": {
      "author": "Ahmed (https://sketchfab.com/Ahmed0)",
      "license": "CC-BY-4.0 (http://creativecommons.org/licenses/by/4.0/)",
      "source": "https://sketchfab.com/3d-models/rose-flower-88ec44af458146a3b83b9483afe8af7a",
      "title": "Rose flower"
    },
    "generator": "Sketchfab-12.66.0",
    "version": "2.0"
  },
  "bufferViews": [
    {
      "buffer": 0,
      "byteLength": 9732,
      "name": "floatBufferViews",
      "target": 34963
    },
    {
      "buffer": 0,
      "byteLength": 19704,
      "byteOffset": 9732,
      "byteStride": 8,
      "name": "floatBufferViews",
      "target": 34962
    },
    {
      "buffer": 0,
      "byteLength": 19704,
      "byteOffset": 29436,
      "byteStride": 12,
      "name": "floatBufferViews",
      "target": 34962
    },
    {
      "buffer": 0,
      "byteLength": 13136,
      "byteOffset": 49140,
      "byteStride": 16,
      "name": "floatBufferViews",
      "target": 34962
    }
  ],
  "buffers": [
    {
      "byteLength": 62276,
      "uri": "scene.bin"
    }
  ],
  "images": [
    {
      "uri": "textures/RoseClimber_INST_baseColor.png"
    },
    {
      "uri": "textures/RoseClimber_INST_normal.png"
    }
  ],
  "materials": [
    {
      "alphaMode": "BLEND",
      "doubleSided": true,
      "name": "RoseClimber_INST",
      "normalTexture": {
        "index": 1
      },
      "pbrMetallicRoughness": {
        "baseColorTexture": {
          "index": 0
        },
        "metallicFactor": 0.0,
        "roughnessFactor": 0.9552971106669089
      }
    }
  ],
  "meshes": [
    {
      "name": "SM_Rosaceae_RoseClimber_INST_0",
      "primitives": [
        {
          "attributes": {
            "NORMAL": 1,
            "POSITION": 0,
            "TANGENT": 2,
            "TEXCOORD_0": 3,
            "TEXCOORD_1": 4,
            "TEXCOORD_2": 5
          },
          "indices": 6,
          "material": 0,
          "mode": 4
        }
      ]
    }
  ],
  "nodes": [
    {
      "children": [
        1
      ],
      "matrix": [
        1.0,
        0.0,
        0.0,
        0.0,
        0.0,
        2.220446049250313e-16,
        -1.0,
        0.0,
        0.0,
        1.0,
        2.220446049250313e-16,
        0.0,
        0.0,
        0.0,
        0.0,
        1.0
      ],
      "name": "Sketchfab_model"
    },
    {
      "children": [
        2
      ],
      "matrix": [
        0.02539999969303608,
        0.0,
        0.0,
        0.0,
        0.0,
        0.0,
        0.02539999969303608,
        0.0,
        0.0,
        -0.02539999969303608,
        0.0,
        0.0,
        0.0,
        0.0,
        0.0,
        1.0
      ],
      "name": "66be07cd1de2472b980b5c2d7fc1bf6d.fbx"
    },
    {
      "children": [
        3
      ],
      "name": "RootNode"
    },
    {
      "children": [
        4
      ],
      "matrix": [
        1.0,
        0.0,
        0.0,
        0.0,
        0.0,
        2.220446049250313e-16,
        -1.0,
        0.0,
        0.0,
        1.0,
        2.220446049250313e-16,
        0.0,
        0.0,
        0.0,
        0.0,
        1.0
      ],
      "name": "SM_Rosaceae"
    },
    {
      "mesh": 0,
      "name": "SM_Rosaceae_RoseClimber_INST_0"
    }
  ],
  "samplers": [
    {
      "magFilter": 9729,
      "minFilter": 9987,
      "wrapS": 10497,
      "wrapT": 10497
    }
  ],
  "scene": 0,
  "scenes": [
    {
      "name": "Sketchfab_Scene",
      "nodes": [
        0
      ]
    }
  ],
  "textures": [
    {
      "sampler": 0,
      "source": 0
    },
    {
      "sampler": 0,
      "source": 1
    }
  ]
}
