{
  "accessors": [
    {
      "bufferView": 2,
      "componentType": 5126,
      "count": 14162,
      "max": [
        9.981964111328125,
        17.91375732421875,
        6.1077423095703125
      ],
      "min": [
        -7.941860198974609,
        -0.012412354350090027,
        -3.2211875915527344
      ],
      "type": "VEC3"
    },
    {
      "bufferView": 2,
      "byteOffset": 169944,
      "componentType": 5126,
      "count": 14162,
      "max": [
        0.9999921321868896,
        0.999817430973053,
        0.999933123588562
      ],
      "min": [
        -0.9999687075614929,
        -0.9999752044677734,
        -0.9999760389328003
      ],
      "type": "VEC3"
    },
    {
      "bufferView": 3,
      "componentType": 5126,
      "count": 14162,
      "max": [
        0.9996116757392883,
        0.9996079206466675,
        0.9999918341636658,
        1.0
      ],
      "min": [
        -0.9997421503067017,
        -0.9997245073318481,
        -0.9999955892562866,
        -1.0
      ],
      "type": "VEC4"
    },
    {
      "bufferView": 1,
      "componentType": 5126,
      "count": 14162,
      "max": [
        0.9904314279556274,
        0.9981211423873901
      ],
      "min": [
        0.007816612720489502,
        0.005427241325378418
      ],
      "type": "VEC2"
    },
    {
      "bufferView": 1,
      "byteOffset": 113296,
      "componentType": 5126,
      "count": 14162,
      "max": [
        0.9904314279556274,
        0.9981211423873901
      ],
      "min": [
        0.007816612720489502,
        0.005427241325378418
      ],
      "type": "VEC2"
    },
    {
      "bufferView": 1,
      "byteOffset": 226592,
      "componentType": 5126,
      "count": 14162,
      "max": [
        0.9904314279556274,
        0.9981211423873901
      ],
      "min": [
        0.007816612720489502,
        0.005427241325378418
      ],
      "type": "VEC2"
    },
    {
      "bufferView": 1,
      "byteOffset": 339888,
      "componentType": 5126,
      "count": 14162,
      "max": [
        0.9904314279556274,
        0.9981211423873901
      ],
      "min": [
        0.007816612720489502,
        0.005427241325378418
      ],
      "type": "VEC2"
    },
    {
      "bufferView": 1,
      "byteOffset": 453184,
      "componentType": 5126,
      "count": 14162,
      "max": [
        0.9904314279556274,
        0.9981211423873901
      ],
      "min": [
        0.007816612720489502,
        0.005427241325378418
      ],
      "type": "VEC2"
    },
    {
      "bufferView": 0,
      "componentType": 5125,
      "count": 80091,
      "type": "SCALAR"
    }
  ],
  "asset": {
    "extras": {
      "author": "Al-Deezel (https://sketchfab.com/Al-dezel)",
      "license": "CC-BY-4.0 (http://creativecommons.org/licenses/by/4.0/)",
      "source": "https://sketchfab.com/3d-models/zebra-a161cf17a64b42f9b4002c3829299f5c",
      "title": "Zebra"
    },
    "generator": "Sketchfab-15.22.0",
    "version": "2.0"
  },
  "bufferViews": [
    {
      "buffer": 0,
      "byteLength": 320364,
      "name": "floatBufferViews",
      "target": 34963
    },
    {
      "buffer": 0,
      "byteLength": 566480,
      "byteOffset": 320364,
      "byteStride": 8,
      "name": "floatBufferViews",
      "target": 34962
    },
    {
      "buffer": 0,
      "byteLength": 339888,
      "byteOffset": 886844,
      "byteStride": 12,
      "name": "floatBufferViews",
      "target": 34962
    },
    {
      "buffer": 0,
      "byteLength": 226592,
      "byteOffset": 1226732,
      "byteStride": 16,
      "name": "floatBufferViews",
      "target": 34962
    }
  ],
  "buffers": [
    {
      "byteLength": 1453324,
      "uri": "tf.bin"
    }
  ],
  "extensionsRequired": [
    "KHR_materials_pbrSpecularGlossiness"
  ],
  "extensionsUsed": [
    "KHR_materials_pbrSpecularGlossiness"
  ],
  "images": [
    {
      "uri": "textures/material_0_diffuse.png"
    },
    {
      "uri": "textures/material_0_specularGlossiness.png"
    },
    {
      "uri": "textures/material_0_normal.png"
    },
    {
      "uri": "textures/material_0_occlusion.png"
    }
  ],
  "materials": [
    {
      "doubleSided": true,
      "extensions": {
        "KHR_materials_pbrSpecularGlossiness": {
          "diffuseFactor": [
            1.0,
            1.0,
            1.0,
            1.0
          ],
          "diffuseTexture": {
            "index": 0
          },
          "glossinessFactor": 1.0,
          "specularFactor": [
            1.0,
            1.0,
            1.0
          ],
          "specularGlossinessTexture": {
            "index": 1
          }
        }
      },
      "name": "material_0",
      "normalTexture": {
        "index": 2
      },
      "occlusionTexture": {
        "index": 3
      }
    }
  ],
  "meshes": [
    {
      "name": "Object_0",
      "primitives": [
        {
          "attributes": {
            "NORMAL": 1,
            "POSITION": 0,
            "TANGENT": 2,
            "TEXCOORD_0": 3,
            "TEXCOORD_1": 4,
            "TEXCOORD_2": 5,
            "TEXCOORD_3": 6,
            "TEXCOORD_4": 7
          },
          "indices": 8,
          "material": 0,
          "mode": 4
        }
      ]
    }
  ],
  "nodes": [
    {
      "children": [
        1
      ],
      "matrix": [
        1.0,
        0.0,
        0.0,
        0.0,
        0.0,
        2.220446049250313e-16,
        -1.0,
        0.0,
        0.0,
        1.0,
        2.220446049250313e-16,
        0.0,
        0.0,
        0.0,
        0.0,
        1.0
      ],
      "name": "Sketchfab_model"
    },
    {
      "children": [
        2
      ],
      "name": "root"
    },
    {
      "children": [
        3
      ],
      "matrix": [
        1.0,
        0.0,
        0.0,
        0.0,
        0.0,
        2.220446049250313e-16,
        1.0,
        0.0,
        0.0,
        -1.0,
        2.220446049250313e-16,
        0.0,
        0.0,
        0.0,
        0.0,
        1.0
      ],
      "name": "GLTF_SceneRootNode"
    },
    {
      "children": [
        4
      ],
      "matrix": [
        0.009999999776482582,
        0.0,
        0.0,
        0.0,
        0.0,
        0.009999999776482582,
        0.0,
        0.0,
        0.0,
        0.0,
        0.009999999776482582,
        0.0,
        0.0,
        0.0,
        0.0,
        1.0
      ],
      "name": "RootNode.0_0"
    },
    {
      "children": [
        5
      ],
      "name": "zebra.1_1"
    },
    {
      "mesh": 0,
      "name": "Object_5"
    }
  ],
  "samplers": [
    {
      "magFilter": 9729,
      "minFilter": 9987,
      "wrapS": 10497,
      "wrapT": 10497
    }
  ],
  "scene": 0,
  "scenes": [
    {
      "name": "Sketchfab_Scene",
      "nodes": [
        0
      ]
    }
  ],
  "textures": [
    {
      "sampler": 0,
      "source": 0
    },
    {
      "sampler": 0,
      "source": 1
    },
    {
      "sampler": 0,
      "source": 2
    },
    {
      "sampler": 0,
      "source": 3
    }
  ]
}
