{
  "accessors": [
    {
      "bufferView": 2,
      "componentType": 5126,
      "count": 4,
      "max": [
        1.249493956565857,
        -0.6881979703903198,
        -3.0755629539489746
      ],
      "min": [
        -1.249493956565857,
        -0.6881979703903198,
        -3.075563907623291
      ],
      "type": "VEC3"
    },
    {
      "bufferView": 1,
      "componentType": 5126,
      "count": 4,
      "max": [
        0.0,
        0.0
      ],
      "min": [
        0.0,
        0.0
      ],
      "type": "VEC2"
    },
    {
      "bufferView": 0,
      "componentType": 5125,
      "count": 4,
      "type": "SCALAR"
    },
    {
      "bufferView": 2,
      "byteOffset": 48,
      "componentType": 5126,
      "count": 65532,
      "max": [
        2.083022117614746,
        4.8175950050354,
        3.2622530460357666
      ],
      "min": [
        -2.2750790119171143,
        -6.121387958526611,
        -3.0760838985443115
      ],
      "type": "VEC3"
    },
    {
      "bufferView": 2,
      "byteOffset": 786432,
      "componentType": 5126,
      "count": 65532,
      "max": [
        0.9999945163726807,
        0.9995006918907166,
        0.9999517202377319
      ],
      "min": [
        -0.9999934434890747,
        -0.9999314546585083,
        -0.9999910593032837
      ],
      "type": "VEC3"
    },
    {
      "bufferView": 1,
      "byteOffset": 32,
      "componentType": 5126,
      "count": 65532,
      "max": [
        0.9377049803733826,
        0.93995600938797
      ],
      "min": [
        0.010215000249445438,
        0.00368899991735816
      ],
      "type": "VEC2"
    },
    {
      "bufferView": 0,
      "byteOffset": 16,
      "componentType": 5125,
      "count": 380364,
      "type": "SCALAR"
    },
    {
      "bufferView": 2,
      "byteOffset": 1572816,
      "componentType": 5126,
      "count": 65532,
      "max": [
        1.5745769739151,
        4.90436315536499,
        2.3455450534820557
      ],
      "min": [
        -2.1127779483795166,
        -4.06372594833374,
        -3.079538106918335
      ],
      "type": "VEC3"
    },
    {
      "bufferView": 2,
      "byteOffset": 2359200,
      "componentType": 5126,
      "count": 65532,
      "max": [
        0.9999994039535522,
        0.9999798536300659,
        0.9999549388885498
      ],
      "min": [
        -0.9999991655349731,
        -0.9999945163726807,
        -0.999992847442627
      ],
      "type": "VEC3"
    },
    {
      "bufferView": 1,
      "byteOffset": 524288,
      "componentType": 5126,
      "count": 65532,
      "max": [
        0.949150025844574,
        0.9763360023498535
      ],
      "min": [
        0.06552500277757645,
        0.04215700179338455
      ],
      "type": "VEC2"
    },
    {
      "bufferView": 0,
      "byteOffset": 1521472,
      "componentType": 5125,
      "count": 381600,
      "type": "SCALAR"
    },
    {
      "bufferView": 2,
      "byteOffset": 3145584,
      "componentType": 5126,
      "count": 65532,
      "max": [
        2.2750790119171143,
        4.8996357917785645,
        3.2622530460357666
      ],
      "min": [
        -1.8122459650039673,
        -6.13570499420166,
        -3.072962999343872
      ],
      "type": "VEC3"
    },
    {
      "bufferView": 2,
      "byteOffset": 3931968,
      "componentType": 5126,
      "count": 65532,
      "max": [
        0.999982476234436,
        0.9999995231628418,
        0.9999517202377319
      ],
      "min": [
        -0.9999244213104248,
        -0.9999831914901733,
        -0.9999911785125732
      ],
      "type": "VEC3"
    },
    {
      "bufferView": 1,
      "byteOffset": 1048544,
      "componentType": 5126,
      "count": 65532,
      "max": [
        0.999688982963562,
        0.9649839997291565
      ],
      "min": [
        0.010266999714076519,
        0.00368899991735816
      ],
      "type": "VEC2"
    },
    {
      "bufferView": 0,
      "byteOffset": 3047872,
      "componentType": 5125,
      "count": 377196,
      "type": "SCALAR"
    },
    {
      "bufferView": 2,
      "byteOffset": 4718352,
      "componentType": 5126,
      "count": 51199,
      "max": [
        2.2750320434570313,
        4.874345779418945,
        2.9661409854888916
      ],
      "min": [
        -0.8448759913444519,
        -4.280979156494141,
        -3.079538106918335
      ],
      "type": "VEC3"
    },
    {
      "bufferView": 2,
      "byteOffset": 5332740,
      "componentType": 5126,
      "count": 51199,
      "max": [
        0.9999991655349731,
        0.99979168176651,
        0.9999549388885498
      ],
      "min": [
        -0.9999994039535522,
        -0.9999798536300659,
        -0.9999799728393555
      ],
      "type": "VEC3"
    },
    {
      "bufferView": 1,
      "byteOffset": 1572800,
      "componentType": 5126,
      "count": 51199,
      "max": [
        0.949150025844574,
        0.9763360023498535
      ],
      "min": [
        0.010215000249445438,
        0.021316999569535255
      ],
      "type": "VEC2"
    },
    {
      "bufferView": 0,
      "byteOffset": 4556656,
      "componentType": 5125,
      "count": 294696,
      "type": "SCALAR"
    },
    {
      "bufferView": 2,
      "byteOffset": 5947128,
      "componentType": 5126,
      "count": 8836,
      "max": [
        1.122257947921753,
        -2.6936678886413574,
        0.31528499722480774
      ],
      "min": [
        -1.122257947921753,
        -3.042788028717041,
        -0.03389599919319153
      ],
      "type": "VEC3"
    },
    {
      "bufferView": 2,
      "byteOffset": 6053160,
      "componentType": 5126,
      "count": 8836,
      "max": [
        0.999690592288971,
        0.999527633190155,
        0.9997983574867249
      ],
      "min": [
        -0.999690592288971,
        -0.999527633190155,
        -0.9997983574867249
      ],
      "type": "VEC3"
    },
    {
      "bufferView": 1,
      "byteOffset": 1982392,
      "componentType": 5126,
      "count": 8836,
      "max": [
        0.9863970279693604,
        0.9686470031738281
      ],
      "min": [
        0.045024000108242035,
        0.03916500136256218
      ],
      "type": "VEC2"
    },
    {
      "bufferView": 0,
      "byteOffset": 5735440,
      "componentType": 5125,
      "count": 51840,
      "type": "SCALAR"
    }
  ],
  "asset": {
    "extras": {
      "author": "zisisbad (https://sketchfab.com/zisisbad)",
      "license": "CC-BY-4.0 (http://creativecommons.org/licenses/by/4.0/)",
      "source": "https://sketchfab.com/3d-models/rihnoceros-9ba66156fd0d4b81813bcf81a22292de",
      "title": "Rihnoceros"
    },
    "generator": "Sketchfab-12.66.0",
    "version": "2.0"
  },
  "bufferViews": [
    {
      "buffer": 0,
      "byteLength": 5942800,
      "name": "floatBufferViews",
      "target": 34963
    },
    {
      "buffer": 0,
      "byteLength": 2053080,
      "byteOffset": 5942800,
      "byteStride": 8,
      "name": "floatBufferViews",
      "target": 34962
    },
    {
      "buffer": 0,
      "byteLength": 6159192,
      "byteOffset": 7995880,
      "byteStride": 12,
      "name": "floatBufferViews",
      "target": 34962
    }
  ],
  "buffers": [
    {
      "byteLength": 14155072,
      "uri": "scene.bin"
    }
  ],
  "images": [
    {
      "uri": "textures/Material_baseColor.png"
    },
    {
      "uri": "textures/Material.001_baseColor.jpeg"
    }
  ],
  "materials": [
    {
      "doubleSided": true,
      "name": "Material",
      "pbrMetallicRoughness": {
        "baseColorTexture": {
          "index": 0
        },
        "metallicFactor": 0.0,
        "roughnessFactor": 0.6
      }
    },
    {
      "doubleSided": true,
      "name": "Material.001",
      "pbrMetallicRoughness": {
        "baseColorTexture": {
          "index": 1
        },
        "metallicFactor": 0.0,
        "roughnessFactor": 0.24077572612642492
      }
    }
  ],
  "meshes": [
    {
      "name": "Object_0",
      "primitives": [
        {
          "attributes": {
            "POSITION": 0,
            "TEXCOORD_0": 1
          },
          "indices": 2,
          "material": 0,
          "mode": 1
        }
      ]
    },
    {
      "name": "Object_1",
      "primitives": [
        {
          "attributes": {
            "NORMAL": 4,
            "POSITION": 3,
            "TEXCOORD_0": 5
          },
          "indices": 6,
          "material": 0,
          "mode": 4
        }
      ]
    },
    {
      "name": "Object_2",
      "primitives": [
        {
          "attributes": {
            "NORMAL": 8,
            "POSITION": 7,
            "TEXCOORD_0": 9
          },
          "indices": 10,
          "material": 0,
          "mode": 4
        }
      ]
    },
    {
      "name": "Object_3",
      "primitives": [
        {
          "attributes": {
            "NORMAL": 12,
            "POSITION": 11,
            "TEXCOORD_0": 13
          },
          "indices": 14,
          "material": 0,
          "mode": 4
        }
      ]
    },
    {
      "name": "Object_4",
      "primitives": [
        {
          "attributes": {
            "NORMAL": 16,
            "POSITION": 15,
            "TEXCOORD_0": 17
          },
          "indices": 18,
          "material": 0,
          "mode": 4
        }
      ]
    },
    {
      "name": "Object_5",
      "primitives": [
        {
          "attributes": {
            "NORMAL": 20,
            "POSITION": 19,
            "TEXCOORD_0": 21
          },
          "indices": 22,
          "material": 1,
          "mode": 4
        }
      ]
    }
  ],
  "nodes": [
    {
      "children": [
        1
      ],
      "matrix": [
        1.0,
        0.0,
        0.0,
        0.0,
        0.0,
        2.220446049250313e-16,
        -1.0,
        0.0,
        0.0,
        1.0,
        2.220446049250313e-16,
        0.0,
        0.0,
        0.0,
        0.0,
        1.0
      ],
      "name": "Sketchfab_model"
    },
    {
      "children": [
        2,
        3,
        4,
        5,
        6,
        7
      ],
      "name": "Rihno2.obj.cleaner.materialmerger.gles"
    },
    {
      "mesh": 0,
      "name": "Object_2"
    },
    {
      "mesh": 1,
      "name": "Object_3"
    },
    {
      "mesh": 2,
      "name": "Object_4"
    },
    {
      "mesh": 3,
      "name": "Object_5"
    },
    {
      "mesh": 4,
      "name": "Object_6"
    },
    {
      "mesh": 5,
      "name": "Object_7"
    }
  ],
  "samplers": [
    {
      "magFilter": 9729,
      "minFilter": 9987,
      "wrapS": 10497,
      "wrapT": 10497
    }
  ],
  "scene": 0,
  "scenes": [
    {
      "name": "Sketchfab_Scene",
      "nodes": [
        0
      ]
    }
  ],
  "textures": [
    {
      "sampler": 0,
      "source": 0
    },
    {
      "sampler": 0,
      "source": 1
    }
  ]
}
