{
  "accessors": [
    {
      "bufferView": 2,
      "componentType": 5126,
      "count": 1095,
      "max": [
        59.19578552246094,
        69.39009094238281,
        218.6326446533203
      ],
      "min": [
        -61.45195388793945,
        -52.316768646240234,
        -0.11275099962949753
      ],
      "type": "VEC3"
    },
    {
      "bufferView": 2,
      "byteOffset": 13140,
      "componentType": 5126,
      "count": 1095,
      "max": [
        0.9999536275863647,
        1.0,
        0.9911729097366333
      ],
      "min": [
        -0.9999927878379822,
        -1.0,
        -0.991173267364502
      ],
      "type": "VEC3"
    },
    {
      "bufferView": 1,
      "componentType": 5126,
      "count": 1095,
      "max": [
        0.9732199907302856,
        1.0
      ],
      "min": [
        0.008391999639570713,
        0.0
      ],
      "type": "VEC2"
    },
    {
      "bufferView": 0,
      "componentType": 5125,
      "count": 3294,
      "type": "SCALAR"
    }
  ],
  "asset": {
    "extras": {
      "author": "sujirour (https://sketchfab.com/sujirour)",
      "license": "CC-BY-4.0 (http://creativecommons.org/licenses/by/4.0/)",
      "source": "https://sketchfab.com/3d-models/bamboo-bush-d0d5eb345ff7420bb7f5c5239fcec637",
      "title": "Bamboo Bush"
    },
    "generator": "Sketchfab-12.65.0",
    "version": "2.0"
  },
  "bufferViews": [
    {
      "buffer": 0,
      "byteLength": 13176,
      "name": "floatBufferViews",
      "target": 34963
    },
    {
      "buffer": 0,
      "byteLength": 8760,
      "byteOffset": 13176,
      "byteStride": 8,
      "name": "floatBufferViews",
      "target": 34962
    },
    {
      "buffer": 0,
      "byteLength": 26280,
      "byteOffset": 21936,
      "byteStride": 12,
      "name": "floatBufferViews",
      "target": 34962
    }
  ],
  "buffers": [
    {
      "byteLength": 48216,
      "uri": "scene.bin"
    }
  ],
  "images": [
    {
      "uri": "textures/phong1SG_baseColor.png"
    }
  ],
  "materials": [
    {
      "alphaMode": "BLEND",
      "name": "phong1SG",
      "pbrMetallicRoughness": {
        "baseColorTexture": {
          "index": 0
        },
        "metallicFactor": 0.0
      }
    }
  ],
  "meshes": [
    {
      "name": "Object_0",
      "primitives": [
        {
          "attributes": {
            "NORMAL": 1,
            "POSITION": 0,
            "TEXCOORD_0": 2
          },
          "indices": 3,
          "material": 0,
          "mode": 4
        }
      ]
    }
  ],
  "nodes": [
    {
      "children": [
        1
      ],
      "matrix": [
        1.0,
        0.0,
        0.0,
        0.0,
        0.0,
        2.220446049250313e-16,
        -1.0,
        0.0,
        0.0,
        1.0,
        2.220446049250313e-16,
        0.0,
        0.0,
        0.0,
        0.0,
        1.0
      ],
      "name": "Sketchfab_model"
    },
    {
      "children": [
        2
      ],
      "name": "bamboo.obj.cleaner.materialmerger.gles"
    },
    {
      "mesh": 0,
      "name": "Object_2"
    }
  ],
  "samplers": [
    {
      "magFilter": 9729,
      "minFilter": 9987,
      "wrapS": 10497,
      "wrapT": 10497
    }
  ],
  "scene": 0,
  "scenes": [
    {
      "name": "Sketchfab_Scene",
      "nodes": [
        0
      ]
    }
  ],
  "textures": [
    {
      "sampler": 0,
      "source": 0
    }
  ]
}
