{
  "accessors": [
    {
      "bufferView": 2,
      "componentType": 5126,
      "count": 9773,
      "max": [
        7.602178573608398,
        4.336530685424805,
        8.79902172088623
      ],
      "min": [
        -8.146575927734375,
        -18.01740837097168,
        -7.944995880126953
      ],
      "type": "VEC3"
    },
    {
      "bufferView": 2,
      "byteOffset": 117276,
      "componentType": 5126,
      "count": 9773,
      "max": [
        0.9999518990516663,
        0.999995768070221,
        0.9995570182800293
      ],
      "min": [
        -0.9963583946228027,
        -0.9999703764915466,
        -0.9991918802261353
      ],
      "type": "VEC3"
    },
    {
      "bufferView": 3,
      "componentType": 5126,
      "count": 9773,
      "max": [
        0.9999451637268066,
        0.7810060381889343,
        0.9999349117279053,
        1.0
      ],
      "min": [
        -0.999489426612854,
        -0.9999783039093018,
        -0.9986505508422852,
        -1.0
      ],
      "type": "VEC4"
    },
    {
      "bufferView": 1,
      "componentType": 5126,
      "count": 9773,
      "max": [
        0.96727055311203,
        0.8956084251403809
      ],
      "min": [
        0.016865693032741547,
        0.1274162083864212
      ],
      "type": "VEC2"
    },
    {
      "bufferView": 1,
      "byteOffset": 78184,
      "componentType": 5126,
      "count": 9773,
      "max": [
        0.96727055311203,
        0.8956084251403809
      ],
      "min": [
        0.016865693032741547,
        0.1274162083864212
      ],
      "type": "VEC2"
    },
    {
      "bufferView": 1,
      "byteOffset": 156368,
      "componentType": 5126,
      "count": 9773,
      "max": [
        0.96727055311203,
        0.8956084251403809
      ],
      "min": [
        0.016865693032741547,
        0.1274162083864212
      ],
      "type": "VEC2"
    },
    {
      "bufferView": 0,
      "componentType": 5125,
      "count": 37860,
      "type": "SCALAR"
    },
    {
      "bufferView": 2,
      "byteOffset": 234552,
      "componentType": 5126,
      "count": 8773,
      "max": [
        7.602178573608398,
        -0.31647682189941406,
        8.79902458190918
      ],
      "min": [
        -8.146574020385742,
        -18.01740837097168,
        -6.724418640136719
      ],
      "type": "VEC3"
    },
    {
      "bufferView": 2,
      "byteOffset": 339828,
      "componentType": 5126,
      "count": 8773,
      "max": [
        0.9999354481697083,
        0.999998152256012,
        0.9996506571769714
      ],
      "min": [
        -0.9961315393447876,
        -0.9997696876525879,
        -0.9986987709999084
      ],
      "type": "VEC3"
    },
    {
      "bufferView": 3,
      "byteOffset": 156368,
      "componentType": 5126,
      "count": 8773,
      "max": [
        0.999966561794281,
        0.7870128154754639,
        0.999933123588562,
        1.0
      ],
      "min": [
        -0.9997733235359192,
        -0.9999443292617798,
        -0.9999222159385681,
        -1.0
      ],
      "type": "VEC4"
    },
    {
      "bufferView": 1,
      "byteOffset": 234552,
      "componentType": 5126,
      "count": 8773,
      "max": [
        0.96727055311203,
        0.8956084251403809
      ],
      "min": [
        0.016865693032741547,
        0.1274162083864212
      ],
      "type": "VEC2"
    },
    {
      "bufferView": 1,
      "byteOffset": 304736,
      "componentType": 5126,
      "count": 8773,
      "max": [
        0.96727055311203,
        0.8956084251403809
      ],
      "min": [
        0.016865693032741547,
        0.1274162083864212
      ],
      "type": "VEC2"
    },
    {
      "bufferView": 1,
      "byteOffset": 374920,
      "componentType": 5126,
      "count": 8773,
      "max": [
        0.96727055311203,
        0.8956084251403809
      ],
      "min": [
        0.016865693032741547,
        0.1274162083864212
      ],
      "type": "VEC2"
    },
    {
      "bufferView": 0,
      "byteOffset": 151440,
      "componentType": 5125,
      "count": 33879,
      "type": "SCALAR"
    },
    {
      "bufferView": 2,
      "byteOffset": 445104,
      "componentType": 5126,
      "count": 8667,
      "max": [
        7.602179050445557,
        0.2762947082519531,
        8.689705848693848
      ],
      "min": [
        -8.146577835083008,
        -18.01740837097168,
        -7.994036674499512
      ],
      "type": "VEC3"
    },
    {
      "bufferView": 2,
      "byteOffset": 549108,
      "componentType": 5126,
      "count": 8667,
      "max": [
        0.999951958656311,
        0.999995768070221,
        0.9995571374893188
      ],
      "min": [
        -0.9963583946228027,
        -0.9999703764915466,
        -0.9991916418075562
      ],
      "type": "VEC3"
    },
    {
      "bufferView": 3,
      "byteOffset": 296736,
      "componentType": 5126,
      "count": 8667,
      "max": [
        0.9999451637268066,
        0.8575273156166077,
        0.9994351863861084,
        1.0
      ],
      "min": [
        -0.9995597004890442,
        -0.9999518990516663,
        -0.999941349029541,
        -1.0
      ],
      "type": "VEC4"
    },
    {
      "bufferView": 1,
      "byteOffset": 445104,
      "componentType": 5126,
      "count": 8667,
      "max": [
        0.96727055311203,
        0.8956084251403809
      ],
      "min": [
        0.016865693032741547,
        0.1274162083864212
      ],
      "type": "VEC2"
    },
    {
      "bufferView": 1,
      "byteOffset": 514440,
      "componentType": 5126,
      "count": 8667,
      "max": [
        0.96727055311203,
        0.8956084251403809
      ],
      "min": [
        0.016865693032741547,
        0.1274162083864212
      ],
      "type": "VEC2"
    },
    {
      "bufferView": 1,
      "byteOffset": 583776,
      "componentType": 5126,
      "count": 8667,
      "max": [
        0.96727055311203,
        0.8956084251403809
      ],
      "min": [
        0.016865693032741547,
        0.1274162083864212
      ],
      "type": "VEC2"
    },
    {
      "bufferView": 0,
      "byteOffset": 286956,
      "componentType": 5125,
      "count": 33360,
      "type": "SCALAR"
    },
    {
      "bufferView": 2,
      "byteOffset": 653112,
      "componentType": 5126,
      "count": 5402,
      "max": [
        7.602177619934082,
        -1.2724075317382813,
        3.797610282897949
      ],
      "min": [
        -8.146576881408691,
        -18.017410278320313,
        -7.94499397277832
      ],
      "type": "VEC3"
    },
    {
      "bufferView": 2,
      "byteOffset": 717936,
      "componentType": 5126,
      "count": 5402,
      "max": [
        0.9999193549156189,
        0.9999940395355225,
        0.9995650053024292
      ],
      "min": [
        -0.9846282005310059,
        -0.999971866607666,
        -0.9991645812988281
      ],
      "type": "VEC3"
    },
    {
      "bufferView": 3,
      "byteOffset": 435408,
      "componentType": 5126,
      "count": 5402,
      "max": [
        0.9999461770057678,
        0.7526370286941528,
        0.9994384050369263,
        1.0
      ],
      "min": [
        -0.9988102316856384,
        -0.9999468922615051,
        -0.9982234835624695,
        -1.0
      ],
      "type": "VEC4"
    },
    {
      "bufferView": 1,
      "byteOffset": 653112,
      "componentType": 5126,
      "count": 5402,
      "max": [
        0.96727055311203,
        0.8956084251403809
      ],
      "min": [
        0.016865693032741547,
        0.1274162083864212
      ],
      "type": "VEC2"
    },
    {
      "bufferView": 1,
      "byteOffset": 696328,
      "componentType": 5126,
      "count": 5402,
      "max": [
        0.96727055311203,
        0.8956084251403809
      ],
      "min": [
        0.016865693032741547,
        0.1274162083864212
      ],
      "type": "VEC2"
    },
    {
      "bufferView": 1,
      "byteOffset": 739544,
      "componentType": 5126,
      "count": 5402,
      "max": [
        0.96727055311203,
        0.8956084251403809
      ],
      "min": [
        0.016865693032741547,
        0.1274162083864212
      ],
      "type": "VEC2"
    },
    {
      "bufferView": 0,
      "byteOffset": 420396,
      "componentType": 5125,
      "count": 20856,
      "type": "SCALAR"
    }
  ],
  "asset": {
    "extras": {
      "author": "charles.cla (https://sketchfab.com/charles.cla)",
      "license": "CC-BY-NC-4.0 (http://creativecommons.org/licenses/by-nc/4.0/)",
      "source": "https://sketchfab.com/3d-models/potato-plants-collection-1ac0d5f9ce884acfabea3f146af670d0",
      "title": "Potato Plants Collection"
    },
    "generator": "Sketchfab-12.67.0",
    "version": "2.0"
  },
  "bufferViews": [
    {
      "buffer": 0,
      "byteLength": 503820,
      "name": "floatBufferViews",
      "target": 34963
    },
    {
      "buffer": 0,
      "byteLength": 782760,
      "byteOffset": 503820,
      "byteStride": 8,
      "name": "floatBufferViews",
      "target": 34962
    },
    {
      "buffer": 0,
      "byteLength": 782760,
      "byteOffset": 1286580,
      "byteStride": 12,
      "name": "floatBufferViews",
      "target": 34962
    },
    {
      "buffer": 0,
      "byteLength": 521840,
      "byteOffset": 2069340,
      "byteStride": 16,
      "name": "floatBufferViews",
      "target": 34962
    }
  ],
  "buffers": [
    {
      "byteLength": 2591180,
      "uri": "scene.bin"
    }
  ],
  "images": [
    {
      "uri": "textures/Material_26_baseColor.png"
    },
    {
      "uri": "textures/Material_26_metallicRoughness.png"
    },
    {
      "uri": "textures/Material_26_normal.png"
    }
  ],
  "materials": [
    {
      "alphaMode": "BLEND",
      "doubleSided": true,
      "name": "Material_26",
      "normalTexture": {
        "index": 2
      },
      "occlusionTexture": {
        "index": 1
      },
      "pbrMetallicRoughness": {
        "baseColorTexture": {
          "index": 0
        },
        "metallicFactor": 0.0,
        "metallicRoughnessTexture": {
          "index": 1
        }
      }
    },
    {
      "alphaMode": "BLEND",
      "doubleSided": true,
      "name": "Material_26_0",
      "normalTexture": {
        "index": 2
      },
      "occlusionTexture": {
        "index": 1
      },
      "pbrMetallicRoughness": {
        "baseColorTexture": {
          "index": 0
        },
        "metallicFactor": 0.0,
        "metallicRoughnessTexture": {
          "index": 1
        }
      }
    },
    {
      "alphaMode": "BLEND",
      "doubleSided": true,
      "name": "Material_26_1",
      "normalTexture": {
        "index": 2
      },
      "occlusionTexture": {
        "index": 1
      },
      "pbrMetallicRoughness": {
        "baseColorTexture": {
          "index": 0
        },
        "metallicFactor": 0.0,
        "metallicRoughnessTexture": {
          "index": 1
        }
      }
    },
    {
      "alphaMode": "BLEND",
      "doubleSided": true,
      "name": "Material_26_2",
      "normalTexture": {
        "index": 2
      },
      "occlusionTexture": {
        "index": 1
      },
      "pbrMetallicRoughness": {
        "baseColorTexture": {
          "index": 0
        },
        "metallicFactor": 0.0,
        "metallicRoughnessTexture": {
          "index": 1
        }
      }
    }
  ],
  "meshes": [
    {
      "name": "Potato_03_Material #26_0",
      "primitives": [
        {
          "attributes": {
            "NORMAL": 1,
            "POSITION": 0,
            "TANGENT": 2,
            "TEXCOORD_0": 3,
            "TEXCOORD_1": 4,
            "TEXCOORD_2": 5
          },
          "indices": 6,
          "material": 0,
          "mode": 4
        }
      ]
    },
    {
      "name": "Potato_04_Material #26_0",
      "primitives": [
        {
          "attributes": {
            "NORMAL": 8,
            "POSITION": 7,
            "TANGENT": 9,
            "TEXCOORD_0": 10,
            "TEXCOORD_1": 11,
            "TEXCOORD_2": 12
          },
          "indices": 13,
          "material": 1,
          "mode": 4
        }
      ]
    },
    {
      "name": "Potato_01_Material #26_0",
      "primitives": [
        {
          "attributes": {
            "NORMAL": 15,
            "POSITION": 14,
            "TANGENT": 16,
            "TEXCOORD_0": 17,
            "TEXCOORD_1": 18,
            "TEXCOORD_2": 19
          },
          "indices": 20,
          "material": 2,
          "mode": 4
        }
      ]
    },
    {
      "name": "Potato_02_Material #26_0",
      "primitives": [
        {
          "attributes": {
            "NORMAL": 22,
            "POSITION": 21,
            "TANGENT": 23,
            "TEXCOORD_0": 24,
            "TEXCOORD_1": 25,
            "TEXCOORD_2": 26
          },
          "indices": 27,
          "material": 3,
          "mode": 4
        }
      ]
    }
  ],
  "nodes": [
    {
      "children": [
        1
      ],
      "matrix": [
        1.0,
        0.0,
        0.0,
        0.0,
        0.0,
        2.220446049250313e-16,
        -1.0,
        0.0,
        0.0,
        1.0,
        2.220446049250313e-16,
        0.0,
        0.0,
        0.0,
        0.0,
        1.0
      ],
      "name": "Sketchfab_model"
    },
    {
      "children": [
        2
      ],
      "matrix": [
        1.0,
        0.0,
        0.0,
        0.0,
        0.0,
        0.0,
        1.0,
        0.0,
        0.0,
        -1.0,
        0.0,
        0.0,
        0.0,
        0.0,
        0.0,
        1.0
      ],
      "name": "67131902e6af4be7bad3e1b5a26665b4.fbx"
    },
    {
      "children": [
        3,
        6,
        9,
        12
      ],
      "name": "RootNode"
    },
    {
      "children": [
        4
      ],
      "matrix": [
        1.6292068449885733e-07,
        -1.3234889800848443e-23,
        0.9999999999999867,
        0.0,
        -1.6292068488171135e-07,
        0.9999999999999867,
        2.6543149516178714e-14,
        0.0,
        -0.9999999999999734,
        -1.6292068488171352e-07,
        1.6292068449885733e-07,
        0.0,
        0.0,
        0.0074462890625,
        15.51941967010498,
        1.0
      ],
      "name": "Potato_03"
    },
    {
      "children": [
        5
      ],
      "matrix": [
        1.0,
        0.0,
        -0.0,
        0.0,
        0.0,
        1.0,
        0.0,
        0.0,
        0.0,
        0.0,
        1.0,
        0.0,
        0.0,
        18.017406463623047,
        -7.875658525335894e-07,
        1.0
      ],
      "name": "Object_4"
    },
    {
      "mesh": 0,
      "name": "Potato_03_Material #26_0"
    },
    {
      "children": [
        7
      ],
      "matrix": [
        1.6292068460987963e-07,
        0.0,
        0.9999999999999867,
        0.0,
        -4.371138822550499e-08,
        0.999999999999999,
        7.121489295963928e-15,
        0.0,
        -0.9999999999999858,
        -4.371138822550557e-08,
        1.6292068460987963e-07,
        0.0,
        0.0,
        0.0074462890625,
        30.290969848632813,
        1.0
      ],
      "name": "Potato_04"
    },
    {
      "children": [
        8
      ],
      "matrix": [
        1.0,
        0.0,
        -0.0,
        0.0,
        0.0,
        1.0,
        0.0,
        0.0,
        0.0,
        0.0,
        1.0,
        0.0,
        0.0,
        18.017406463623047,
        -7.875658525335894e-07,
        1.0
      ],
      "name": "Object_7"
    },
    {
      "mesh": 1,
      "name": "Potato_04_Material #26_0"
    },
    {
      "children": [
        10
      ],
      "matrix": [
        1.6292068460987963e-07,
        0.0,
        0.9999999999999867,
        0.0,
        -4.371138822550499e-08,
        0.999999999999999,
        7.121489295963928e-15,
        0.0,
        -0.9999999999999858,
        -4.371138822550557e-08,
        1.6292068460987963e-07,
        0.0,
        0.0,
        0.0074462890625,
        -11.825952529907227,
        1.0
      ],
      "name": "Potato_01"
    },
    {
      "children": [
        11
      ],
      "matrix": [
        1.0,
        0.0,
        -0.0,
        0.0,
        0.0,
        1.0,
        0.0,
        0.0,
        0.0,
        0.0,
        1.0,
        0.0,
        0.0,
        18.017406463623047,
        -7.875658525335894e-07,
        1.0
      ],
      "name": "Object_10"
    },
    {
      "mesh": 2,
      "name": "Potato_01_Material #26_0"
    },
    {
      "children": [
        13
      ],
      "matrix": [
        1.6292068460987963e-07,
        0.0,
        0.9999999999999867,
        0.0,
        -4.371138822550499e-08,
        0.999999999999999,
        7.121489295963928e-15,
        0.0,
        -0.9999999999999858,
        -4.371138822550557e-08,
        1.6292068460987963e-07,
        0.0,
        0.0,
        0.0,
        0.0,
        1.0
      ],
      "name": "Potato_02"
    },
    {
      "children": [
        14
      ],
      "matrix": [
        1.0,
        0.0,
        -0.0,
        0.0,
        0.0,
        1.0,
        0.0,
        0.0,
        0.0,
        0.0,
        1.0,
        0.0,
        0.0,
        18.024852752685547,
        -7.878913379499863e-07,
        1.0
      ],
      "name": "Object_13"
    },
    {
      "mesh": 3,
      "name": "Potato_02_Material #26_0"
    }
  ],
  "samplers": [
    {
      "magFilter": 9729,
      "minFilter": 9987,
      "wrapS": 10497,
      "wrapT": 10497
    }
  ],
  "scene": 0,
  "scenes": [
    {
      "name": "Sketchfab_Scene",
      "nodes": [
        0
      ]
    }
  ],
  "textures": [
    {
      "sampler": 0,
      "source": 0
    },
    {
      "sampler": 0,
      "source": 1
    },
    {
      "sampler": 0,
      "source": 2
    }
  ]
}
